<svg width="65" height="65" viewBox="0 0 65 65" fill="none" xmlns="http://www.w3.org/2000/svg">
<circle cx="32.5" cy="32.5" r="32.5" fill="white"/>
<circle cx="32.5" cy="32.5" r="27" stroke="#FBA310" stroke-width="3"/>
<path d="M32.4961 27.6646C29.8336 27.6646 27.6608 29.8375 27.6608 32.5C27.6608 35.1625 29.8336 37.3354 32.4961 37.3354C35.1586 37.3354 37.3314 35.1625 37.3314 32.5C37.3314 29.8375 35.1586 27.6646 32.4961 27.6646ZM46.9984 32.5C46.9984 30.4976 47.0165 28.5134 46.9041 26.5147C46.7916 24.1931 46.262 22.1327 44.5644 20.4351C42.8632 18.7338 40.8064 18.2078 38.4849 18.0954C36.4826 17.9829 34.4984 18.0011 32.4997 18.0011C30.4974 18.0011 28.5132 17.9829 26.5145 18.0954C24.193 18.2078 22.1327 18.7375 20.4351 20.4351C18.7338 22.1364 18.2078 24.1931 18.0954 26.5147C17.9829 28.5171 18.0011 30.5013 18.0011 32.5C18.0011 34.4987 17.9829 36.4866 18.0954 38.4853C18.2078 40.8069 18.7374 42.8673 20.4351 44.5649C22.1363 46.2662 24.193 46.7922 26.5145 46.9046C28.5169 47.0171 30.501 46.9989 32.4997 46.9989C34.502 46.9989 36.4862 47.0171 38.4849 46.9046C40.8064 46.7922 42.8668 46.2625 44.5644 44.5649C46.2657 42.8636 46.7916 40.8069 46.9041 38.4853C47.0201 36.4866 46.9984 34.5024 46.9984 32.5ZM32.4961 39.9399C28.379 39.9399 25.0563 36.6172 25.0563 32.5C25.0563 28.3828 28.379 25.0601 32.4961 25.0601C36.6132 25.0601 39.9359 28.3828 39.9359 32.5C39.9359 36.6172 36.6132 39.9399 32.4961 39.9399ZM40.2406 26.4929C39.2793 26.4929 38.503 25.7167 38.503 24.7554C38.503 23.7941 39.2793 23.0178 40.2406 23.0178C41.2018 23.0178 41.9781 23.7941 41.9781 24.7554C41.9784 24.9837 41.9336 25.2097 41.8464 25.4207C41.7592 25.6316 41.6312 25.8233 41.4698 25.9847C41.3084 26.1461 41.1168 26.274 40.9058 26.3613C40.6949 26.4485 40.4688 26.4932 40.2406 26.4929Z" fill="#FBA310"/>
</svg>
