<svg width="65" height="65" viewBox="0 0 65 65" fill="none" xmlns="http://www.w3.org/2000/svg">
<circle cx="32.5" cy="32.5" r="32.5" fill="white"/>
<circle cx="32.5" cy="32.5" r="27" stroke="#FBA310" stroke-width="3"/>
<path d="M47 21.4399C45.9335 22.0212 44.7879 22.414 43.5835 22.5915C44.8262 21.6768 45.7559 20.2372 46.1992 18.5413C45.0316 19.3944 43.7538 19.9948 42.4213 20.3166C41.5251 19.1396 40.3382 18.3595 39.0448 18.0974C37.7513 17.8353 36.4237 18.1057 35.268 18.8669C34.1123 19.628 33.1932 20.8372 32.6535 22.3067C32.1137 23.7762 31.9834 25.4238 32.2829 26.9937C29.9171 26.8476 27.6028 26.0912 25.49 24.7736C23.3773 23.456 21.5134 21.6067 20.0192 19.3457C19.5084 20.4297 19.2146 21.6866 19.2146 23.0252C19.214 24.2302 19.4553 25.4167 19.9169 26.4796C20.3786 27.5424 21.0463 28.4486 21.861 29.1178C20.9162 29.0809 19.9923 28.7668 19.1661 28.2019V28.2962C19.166 29.9862 19.6412 31.6243 20.5112 32.9324C21.3812 34.2406 22.5922 35.1382 23.939 35.4729C23.0625 35.7647 22.1437 35.8077 21.2517 35.5986C21.6317 37.0528 22.3718 38.3245 23.3685 39.2355C24.3652 40.1466 25.5686 40.6515 26.8101 40.6795C24.7025 42.7147 22.0997 43.8187 19.4202 43.8138C18.9456 43.814 18.4714 43.7799 18 43.7117C20.7198 45.8628 23.8858 47.0044 27.1192 47C38.0647 47 44.0484 35.8484 44.0484 26.1768C44.0484 25.8625 44.042 25.5452 44.0305 25.231C45.1944 24.1956 46.1991 22.9134 46.9974 21.4446L47 21.4399Z" fill="#FBA310"/>
</svg>
