<svg width="492" height="244" viewBox="0 0 492 244" fill="none" xmlns="http://www.w3.org/2000/svg">
<path d="M114.16 138.789H118.848L116.016 180H6.34766V175.508H9.08203C15.6576 175.508 19.8893 174.629 21.7773 172.871C23.7305 171.113 24.9674 168.9 25.4883 166.23C26.0091 163.496 26.2695 156.595 26.2695 145.527V80.5859C26.2695 70.4948 25.9766 63.8542 25.3906 60.6641C24.8698 57.474 23.6003 55.2604 21.582 54.0234C19.6289 52.7214 15.4622 52.0703 9.08203 52.0703V47.5781H103.711L106.836 80.5859H102.246C100.163 71.3411 97.5911 64.7982 94.5312 60.957C91.5365 57.0508 87.9557 54.6094 83.7891 53.6328C79.6224 52.5911 72.9167 52.0703 63.6719 52.0703H45.3125V107.637H59.375C65.8203 107.637 70.3125 107.083 72.8516 105.977C75.4557 104.87 77.1484 103.21 77.9297 100.996C78.776 98.7174 79.1992 94.3229 79.1992 87.8125H83.7891V133.125H79.1992C79.1992 125.768 78.5807 120.853 77.3438 118.379C76.1068 115.84 74.2839 114.212 71.875 113.496C69.5312 112.715 65.5273 112.324 59.8633 112.324H45.3125V143.672C45.3125 159.362 46.3216 168.607 48.3398 171.406C50.3581 174.141 55.7943 175.508 64.6484 175.508H74.5117C81.4779 175.508 87.207 174.629 91.6992 172.871C96.1914 171.048 100.456 167.37 104.492 161.836C108.594 156.237 111.816 148.555 114.16 138.789ZM248.145 183.027L154.492 58.9062V150.801C154.492 158.418 154.85 163.431 155.566 165.84C156.348 168.249 158.496 170.462 162.012 172.48C165.527 174.499 170.801 175.508 177.832 175.508V180H128.418V175.508C134.733 175.052 139.551 173.913 142.871 172.09C146.191 170.202 148.145 168.184 148.73 166.035C149.382 163.887 149.707 158.809 149.707 150.801V80.5859C149.707 70.4297 149.219 63.6263 148.242 60.1758C147.331 56.7253 145.833 54.5117 143.75 53.5352C141.732 52.5586 137.174 52.0703 130.078 52.0703V47.5781H169.141L247.559 151.191V71.9922C247.559 66.1328 246.94 62.0312 245.703 59.6875C244.531 57.3438 242.09 55.4883 238.379 54.1211C234.668 52.7539 230.208 52.0703 225 52.0703V47.5781H273.047V52.0703C267.448 52.526 263.021 53.6003 259.766 55.293C256.576 56.9857 254.525 59.0365 253.613 61.4453C252.767 63.7891 252.344 67.793 252.344 73.457V183.027H248.145ZM352.93 183.125H346.875L301.172 77.8516C300.326 75.9635 298.991 72.7083 297.168 68.0859C294.629 61.8359 291.96 57.6367 289.16 55.4883C286.361 53.3398 281.836 52.2005 275.586 52.0703V47.5781H332.617V52.0703C325.521 52.0703 320.736 52.5911 318.262 53.6328C315.853 54.6745 314.648 56.6602 314.648 59.5898C314.648 61.4779 316.178 65.9049 319.238 72.8711L357.324 160.762L387.891 87.6172C393.034 75.3776 395.605 67.4023 395.605 63.6914C395.605 56.2044 390.299 52.3307 379.688 52.0703V47.5781H420.117V52.0703C416.016 52.2005 412.402 53.6654 409.277 56.4648C406.152 59.2643 403.451 63.3659 401.172 68.7695L392.285 89.5703L352.93 183.125ZM426.074 52.0703V47.5781H486.621V52.0703H483.789C477.279 52.0703 473.014 52.6237 470.996 53.7305C468.978 54.7721 467.611 56.7578 466.895 59.6875C466.243 62.6172 465.918 69.5833 465.918 80.5859V145.527C465.918 155.944 466.146 162.78 466.602 166.035C467.122 169.225 468.424 171.602 470.508 173.164C472.656 174.727 476.725 175.508 482.715 175.508H486.621V180H426.074V175.508H429.98C435.645 175.508 439.551 174.792 441.699 173.359C443.913 171.927 445.312 169.714 445.898 166.719C446.484 163.659 446.777 156.595 446.777 145.527V80.5859C446.777 70.0391 446.484 63.2357 445.898 60.1758C445.312 57.1159 444.01 55 441.992 53.8281C439.974 52.6562 435.612 52.0703 428.906 52.0703H426.074Z" fill="white"/>
<path d="M100.882 238V219.818H107.7C109.097 219.818 110.269 220.079 111.216 220.599C112.168 221.12 112.888 221.836 113.373 222.748C113.864 223.653 114.11 224.683 114.11 225.837C114.11 227.003 113.864 228.039 113.373 228.945C112.882 229.85 112.157 230.563 111.198 231.084C110.239 231.599 109.058 231.857 107.655 231.857H103.137V229.149H107.212C108.028 229.149 108.697 229.007 109.218 228.723C109.739 228.439 110.124 228.048 110.372 227.551C110.627 227.054 110.754 226.482 110.754 225.837C110.754 225.192 110.627 224.624 110.372 224.133C110.124 223.642 109.736 223.26 109.209 222.988C108.688 222.709 108.017 222.57 107.194 222.57H104.175V238H100.882ZM126.971 238V219.818H130.264V227.515H138.689V219.818H141.992V238H138.689V230.276H130.264V238H126.971ZM171.821 228.909C171.821 230.868 171.454 232.546 170.72 233.943C169.992 235.334 168.997 236.399 167.737 237.139C166.482 237.879 165.059 238.249 163.466 238.249C161.874 238.249 160.448 237.879 159.187 237.139C157.933 236.393 156.938 235.325 156.204 233.934C155.476 232.537 155.112 230.862 155.112 228.909C155.112 226.95 155.476 225.275 156.204 223.884C156.938 222.487 157.933 221.419 159.187 220.679C160.448 219.94 161.874 219.57 163.466 219.57C165.059 219.57 166.482 219.94 167.737 220.679C168.997 221.419 169.992 222.487 170.72 223.884C171.454 225.275 171.821 226.95 171.821 228.909ZM168.509 228.909C168.509 227.53 168.293 226.367 167.861 225.42C167.435 224.467 166.843 223.748 166.085 223.263C165.328 222.772 164.455 222.526 163.466 222.526C162.478 222.526 161.605 222.772 160.848 223.263C160.09 223.748 159.495 224.467 159.063 225.42C158.637 226.367 158.424 227.53 158.424 228.909C158.424 230.288 158.637 231.454 159.063 232.407C159.495 233.354 160.09 234.073 160.848 234.564C161.605 235.05 162.478 235.292 163.466 235.292C164.455 235.292 165.328 235.05 166.085 234.564C166.843 234.073 167.435 233.354 167.861 232.407C168.293 231.454 168.509 230.288 168.509 228.909ZM183.33 222.579V219.818H197.836V222.579H192.216V238H188.949V222.579H183.33ZM226.073 228.909C226.073 230.868 225.707 232.546 224.973 233.943C224.245 235.334 223.25 236.399 221.99 237.139C220.735 237.879 219.312 238.249 217.719 238.249C216.127 238.249 214.701 237.879 213.44 237.139C212.186 236.393 211.191 235.325 210.457 233.934C209.729 232.537 209.365 230.862 209.365 228.909C209.365 226.95 209.729 225.275 210.457 223.884C211.191 222.487 212.186 221.419 213.44 220.679C214.701 219.94 216.127 219.57 217.719 219.57C219.312 219.57 220.735 219.94 221.99 220.679C223.25 221.419 224.245 222.487 224.973 223.884C225.707 225.275 226.073 226.95 226.073 228.909ZM222.762 228.909C222.762 227.53 222.546 226.367 222.114 225.42C221.688 224.467 221.096 223.748 220.338 223.263C219.581 222.772 218.708 222.526 217.719 222.526C216.731 222.526 215.858 222.772 215.1 223.263C214.343 223.748 213.748 224.467 213.316 225.42C212.89 226.367 212.677 227.53 212.677 228.909C212.677 230.288 212.89 231.454 213.316 232.407C213.748 233.354 214.343 234.073 215.1 234.564C215.858 235.05 216.731 235.292 217.719 235.292C218.708 235.292 219.581 235.05 220.338 234.564C221.096 234.073 221.688 233.354 222.114 232.407C222.546 231.454 222.762 230.288 222.762 228.909ZM251.368 225.624C251.22 225.145 251.016 224.716 250.755 224.337C250.501 223.952 250.193 223.624 249.832 223.352C249.477 223.079 249.068 222.875 248.607 222.739C248.145 222.597 247.642 222.526 247.098 222.526C246.121 222.526 245.251 222.772 244.487 223.263C243.724 223.754 243.123 224.476 242.685 225.429C242.253 226.376 242.037 227.53 242.037 228.891C242.037 230.264 242.253 231.427 242.685 232.38C243.117 233.333 243.718 234.058 244.487 234.555C245.257 235.047 246.151 235.292 247.169 235.292C248.092 235.292 248.891 235.115 249.566 234.76C250.246 234.404 250.77 233.901 251.137 233.25C251.504 232.593 251.687 231.824 251.687 230.942L252.433 231.058H247.497V228.483H254.875V230.667C254.875 232.223 254.543 233.57 253.88 234.706C253.217 235.843 252.306 236.719 251.146 237.334C249.986 237.944 248.654 238.249 247.151 238.249C245.476 238.249 244.005 237.873 242.739 237.121C241.478 236.364 240.492 235.289 239.782 233.898C239.078 232.502 238.726 230.844 238.726 228.927C238.726 227.459 238.933 226.148 239.347 224.994C239.767 223.84 240.353 222.86 241.105 222.055C241.857 221.245 242.739 220.629 243.751 220.209C244.763 219.783 245.864 219.57 247.053 219.57C248.059 219.57 248.997 219.718 249.867 220.013C250.737 220.304 251.51 220.718 252.185 221.256C252.865 221.795 253.424 222.434 253.862 223.174C254.3 223.914 254.587 224.731 254.724 225.624H251.368ZM268.059 238V219.818H274.878C276.274 219.818 277.446 220.061 278.393 220.546C279.346 221.031 280.065 221.712 280.551 222.588C281.042 223.458 281.287 224.473 281.287 225.633C281.287 226.799 281.039 227.811 280.542 228.669C280.05 229.522 279.325 230.182 278.367 230.649C277.408 231.111 276.23 231.342 274.833 231.342H269.977V228.607H274.389C275.206 228.607 275.875 228.495 276.396 228.27C276.917 228.039 277.301 227.705 277.55 227.267C277.804 226.823 277.932 226.278 277.932 225.633C277.932 224.988 277.804 224.438 277.55 223.982C277.295 223.52 276.908 223.171 276.387 222.934C275.866 222.692 275.194 222.57 274.372 222.57H271.353V238H268.059ZM277.452 229.761L281.953 238H278.278L273.857 229.761H277.452ZM296.654 238H293.138L299.539 219.818H303.605L310.015 238H306.5L301.643 223.547H301.501L296.654 238ZM296.769 230.871H306.358V233.517H296.769V230.871ZM322.41 238V219.818H329.228C330.625 219.818 331.797 220.079 332.744 220.599C333.697 221.12 334.416 221.836 334.901 222.748C335.392 223.653 335.638 224.683 335.638 225.837C335.638 227.003 335.392 228.039 334.901 228.945C334.41 229.85 333.685 230.563 332.726 231.084C331.767 231.599 330.587 231.857 329.184 231.857H324.665V229.149H328.74C329.557 229.149 330.225 229.007 330.746 228.723C331.267 228.439 331.652 228.048 331.9 227.551C332.155 227.054 332.282 226.482 332.282 225.837C332.282 225.192 332.155 224.624 331.9 224.133C331.652 223.642 331.264 223.26 330.737 222.988C330.217 222.709 329.545 222.57 328.722 222.57H325.704V238H322.41ZM348.499 238V219.818H351.793V227.515H360.218V219.818H363.52V238H360.218V230.276H351.793V238H348.499ZM375.86 219.818H379.579L384.027 227.862H384.205L388.652 219.818H392.372L385.758 231.217V238H382.473V231.217L375.86 219.818Z" fill="white"/>
</svg>
